<svg width="24" height="24" viewBox="0 0 24 24" fill="none" xmlns="http://www.w3.org/2000/svg">
<path d="M12 0C16.4064 0 20 3.59356 20 8C20 9.26828 19.5025 10.6724 18.8223 12.2207C18.1421 13.769 17.2519 15.4227 16.3652 16.9512C14.6412 19.9231 12.9206 22.4257 12.8263 22.5625L12.8223 22.5684L12 23.7598L11.1777 22.5684C11.1777 22.5684 9.40802 20.008 7.63477 16.9512C6.74814 15.4227 5.85794 13.769 5.17773 12.2207C4.49752 10.6724 4 9.26828 4 8C4 3.59356 7.59356 0 12 0ZM12 2C8.67444 2 6 4.67444 6 8C6 8.66472 6.37748 9.97683 7.00977 11.416C7.64206 12.8552 8.50186 14.4589 9.36523 15.9473C10.6812 18.2158 11.4472 19.3058 12 20.127C12.5528 19.3058 13.3188 18.2158 14.6348 15.9473C15.4981 14.4589 16.3579 12.8552 16.9902 11.416C17.6225 9.97683 18 8.66472 18 8C18 4.67444 15.3256 2 12 2ZM12 6C13.1046 6 14 6.89543 14 8C14 9.10457 13.1046 10 12 10C10.8954 10 10 9.10457 10 8C10 6.89543 10.8954 6 12 6Z" fill="white"/>
</svg>
