<svg width="68" height="68" viewBox="0 0 68 68" fill="none" xmlns="http://www.w3.org/2000/svg">
<rect x="1" y="1" width="66" height="66" rx="33" stroke="white" stroke-opacity="0.25" stroke-width="2"/>
<path d="M34 22C29.594 22 26 25.594 26 30C26 31.268 26.498 32.672 27.178 34.22C27.858 35.769 28.748 37.423 29.635 38.951C30.7498 40.8643 31.9315 42.7378 33.178 44.568L34 45.76L34.822 44.568C34.822 44.568 36.592 42.008 38.365 38.951C39.252 37.423 40.142 35.769 40.822 34.221C41.502 32.672 42 31.268 42 30C42 25.594 38.406 22 34 22ZM34 24C37.326 24 40 26.674 40 30C40 30.665 39.623 31.977 38.99 33.416C38.358 34.856 37.498 36.459 36.635 37.947C35.319 40.216 34.553 41.306 34 42.127C33.447 41.306 32.681 40.216 31.365 37.947C30.502 36.459 29.642 34.855 29.01 33.416C28.377 31.976 28 30.665 28 30C28 26.674 30.674 24 34 24ZM34 28C33.4696 28 32.9609 28.2107 32.5858 28.5858C32.2107 28.9609 32 29.4696 32 30C32 30.5304 32.2107 31.0391 32.5858 31.4142C32.9609 31.7893 33.4696 32 34 32C34.5304 32 35.0391 31.7893 35.4142 31.4142C35.7893 31.0391 36 30.5304 36 30C36 29.4696 35.7893 28.9609 35.4142 28.5858C35.0391 28.2107 34.5304 28 34 28Z" fill="white"/>
</svg>
